<?xml version="1.0" encoding="UTF-8" standalone="no" ?>
<!DOCTYPE svg PUBLIC "-//W3C//DTD SVG 1.1//EN" "http://www.w3.org/Graphics/SVG/1.1/DTD/svg11.dtd">
<svg xmlns="http://www.w3.org/2000/svg" xmlns:xlink="http://www.w3.org/1999/xlink" version="1.1" width="1080" height="1080" viewBox="0 0 1080 1080" xml:space="preserve">
<desc>Created with Fabric.js 5.2.4</desc>
<defs>
</defs>
<g transform="matrix(1 0 0 1 540 540)" id="df1b0967-6596-4c00-a2ef-a62f0e76f78d"  >
<rect style="stroke: none; stroke-width: 1; stroke-dasharray: none; stroke-linecap: butt; stroke-dashoffset: 0; stroke-linejoin: miter; stroke-miterlimit: 4; fill: rgb(255,255,255); fill-rule: nonzero; opacity: 1; visibility: hidden;" vector-effect="non-scaling-stroke"  x="-540" y="-540" rx="0" ry="0" width="1080" height="1080" />
</g>
<g transform="matrix(1 0 0 1 540 540)" id="9b1826b1-e93e-4843-9bf0-ae149ea434c3"  >
</g>
<g transform="matrix(1 0 0 1 540 540)" id="550070de-e6f9-4909-9e36-97e414b9648a"  >
<path style="stroke: rgb(0,0,0); stroke-width: 0; stroke-dasharray: none; stroke-linecap: butt; stroke-dashoffset: 0; stroke-linejoin: miter; stroke-miterlimit: 4; fill: rgb(0,0,0); fill-rule: nonzero; opacity: 1;" vector-effect="non-scaling-stroke"  transform=" translate(-125, -123.94)" d="M 127.16 7.513 L 122.853 7.513 L 122.853 216.693 L 127.16 216.693 z M 133.82999999999998 28.793 L 133.474 33.089999999999996 C 185.732 37.397 226.67399999999998 81.9 226.67399999999998 134.4 C 226.67399999999998 190.453 181.06599999999997 236.06 125.00399999999998 236.06 C 68.95099999999998 236.06 23.35399999999997 190.452 23.35399999999997 134.4 C 23.35399999999997 81.887 64.28599999999997 37.38300000000001 116.55399999999997 33.09 L 116.19399999999997 28.793000000000003 C 61.71599999999997 33.273 19.033999999999978 79.659 19.033999999999978 134.403 C 19.033999999999978 192.82999999999998 66.57499999999997 240.373 125.00399999999998 240.373 C 183.44099999999997 240.373 230.974 192.832 230.974 134.403 C 230.974 79.66899999999998 188.303 33.28299999999999 133.83499999999998 28.792999999999992" stroke-linecap="round" />
</g>
</svg>